<?xml version="1.0" encoding="us-ascii" standalone="no"?>
<svg xmlns="http://www.w3.org/2000/svg" xmlns:xlink="http://www.w3.org/1999/xlink" contentStyleType="text/css"
     height="309px" preserveAspectRatio="none" style="width:694px;height:309px;background:#FFFFFF;" version="1.1"
     viewBox="0 0 694 309" width="694px" zoomAndPan="magnify">
    <defs/>
    <g>
        <rect fill="#FFFFFF" height="197.7969" style="stroke:#181818;stroke-width:1.0;" width="10" x="78" y="67.4297"/>
        <rect fill="#FFFFFF" height="145.6641" style="stroke:#181818;stroke-width:1.0;" width="10" x="283" y="96.5625"/>
        <rect fill="#FFFFFF" height="87.3984" style="stroke:#181818;stroke-width:1.0;" width="10" x="438" y="125.6953"/>
        <rect fill="#FFFFFF" height="29.1328" style="stroke:#181818;stroke-width:1.0;" width="10" x="652" y="154.8281"/>
        <line style="stroke:#181818;stroke-width:0.5;stroke-dasharray:5.0,5.0;" x1="28" x2="28" y1="36.2969"
              y2="274.2266"/>
        <line style="stroke:#181818;stroke-width:0.5;stroke-dasharray:5.0,5.0;" x1="82.5" x2="82.5" y1="36.2969"
              y2="274.2266"/>
        <line style="stroke:#181818;stroke-width:0.5;stroke-dasharray:5.0,5.0;" x1="287.5" x2="287.5" y1="36.2969"
              y2="274.2266"/>
        <line style="stroke:#181818;stroke-width:0.5;stroke-dasharray:5.0,5.0;" x1="442.5" x2="442.5" y1="36.2969"
              y2="274.2266"/>
        <line style="stroke:#181818;stroke-width:0.5;stroke-dasharray:5.0,5.0;" x1="656.5" x2="656.5" y1="36.2969"
              y2="274.2266"/>
        <rect fill="#E2E2F0" height="30.2969" rx="2.5" ry="2.5" style="stroke:#181818;stroke-width:0.5;" width="46"
              x="5" y="5"/>
        <text fill="#000000" font-family="sans-serif" font-size="14" lengthAdjust="spacing" textLength="32" x="12"
              y="24.9951">User
        </text>
        <rect fill="#E2E2F0" height="30.2969" rx="2.5" ry="2.5" style="stroke:#181818;stroke-width:0.5;" width="46"
              x="5" y="273.2266"/>
        <text fill="#000000" font-family="sans-serif" font-size="14" lengthAdjust="spacing" textLength="32" x="12"
              y="293.2217">User
        </text>
        <rect fill="#E2E2F0" height="30.2969" rx="2.5" ry="2.5" style="stroke:#181818;stroke-width:0.5;" width="39"
              x="63.5" y="5"/>
        <text fill="#000000" font-family="sans-serif" font-size="14" lengthAdjust="spacing" textLength="25" x="70.5"
              y="24.9951">GUI
        </text>
        <rect fill="#E2E2F0" height="30.2969" rx="2.5" ry="2.5" style="stroke:#181818;stroke-width:0.5;" width="39"
              x="63.5" y="273.2266"/>
        <text fill="#000000" font-family="sans-serif" font-size="14" lengthAdjust="spacing" textLength="25" x="70.5"
              y="293.2217">GUI
        </text>
        <rect fill="#E2E2F0" height="30.2969" rx="2.5" ry="2.5" style="stroke:#181818;stroke-width:0.5;" width="61"
              x="257.5" y="5"/>
        <text fill="#000000" font-family="sans-serif" font-size="14" lengthAdjust="spacing" textLength="47" x="264.5"
              y="24.9951">Server
        </text>
        <rect fill="#E2E2F0" height="30.2969" rx="2.5" ry="2.5" style="stroke:#181818;stroke-width:0.5;" width="61"
              x="257.5" y="273.2266"/>
        <text fill="#000000" font-family="sans-serif" font-size="14" lengthAdjust="spacing" textLength="47" x="264.5"
              y="293.2217">Server
        </text>
        <rect fill="#E2E2F0" height="30.2969" rx="2.5" ry="2.5" style="stroke:#181818;stroke-width:0.5;" width="83"
              x="401.5" y="5"/>
        <text fill="#000000" font-family="sans-serif" font-size="14" lengthAdjust="spacing" textLength="69" x="408.5"
              y="24.9951">SerialPort
        </text>
        <rect fill="#E2E2F0" height="30.2969" rx="2.5" ry="2.5" style="stroke:#181818;stroke-width:0.5;" width="83"
              x="401.5" y="273.2266"/>
        <text fill="#000000" font-family="sans-serif" font-size="14" lengthAdjust="spacing" textLength="69" x="408.5"
              y="293.2217">SerialPort
        </text>
        <rect fill="#E2E2F0" height="30.2969" rx="2.5" ry="2.5" style="stroke:#181818;stroke-width:0.5;" width="63"
              x="625.5" y="5"/>
        <text fill="#000000" font-family="sans-serif" font-size="14" lengthAdjust="spacing" textLength="49" x="632.5"
              y="24.9951">Device
        </text>
        <rect fill="#E2E2F0" height="30.2969" rx="2.5" ry="2.5" style="stroke:#181818;stroke-width:0.5;" width="63"
              x="625.5" y="273.2266"/>
        <text fill="#000000" font-family="sans-serif" font-size="14" lengthAdjust="spacing" textLength="49" x="632.5"
              y="293.2217">Device
        </text>
        <rect fill="#FFFFFF" height="197.7969" style="stroke:#181818;stroke-width:1.0;" width="10" x="78" y="67.4297"/>
        <rect fill="#FFFFFF" height="145.6641" style="stroke:#181818;stroke-width:1.0;" width="10" x="283" y="96.5625"/>
        <rect fill="#FFFFFF" height="87.3984" style="stroke:#181818;stroke-width:1.0;" width="10" x="438" y="125.6953"/>
        <rect fill="#FFFFFF" height="29.1328" style="stroke:#181818;stroke-width:1.0;" width="10" x="652" y="154.8281"/>
        <polygon fill="#181818" points="66,63.4297,76,67.4297,66,71.4297,70,67.4297"
                 style="stroke:#181818;stroke-width:1.0;"/>
        <line style="stroke:#181818;stroke-width:1.0;" x1="28" x2="72" y1="67.4297" y2="67.4297"/>
        <text fill="#000000" font-family="sans-serif" font-size="13" lengthAdjust="spacing" textLength="31" x="35"
              y="62.3638">Start
        </text>
        <polygon fill="#181818" points="271,92.5625,281,96.5625,271,100.5625,275,96.5625"
                 style="stroke:#181818;stroke-width:1.0;"/>
        <line style="stroke:#181818;stroke-width:1.0;" x1="88" x2="277" y1="96.5625" y2="96.5625"/>
        <text fill="#000000" font-family="sans-serif" font-size="13" lengthAdjust="spacing" textLength="62" x="95"
              y="91.4966">Http start
        </text>
        <polygon fill="#181818" points="426,121.6953,436,125.6953,426,129.6953,430,125.6953"
                 style="stroke:#181818;stroke-width:1.0;"/>
        <line style="stroke:#181818;stroke-width:1.0;" x1="293" x2="432" y1="125.6953" y2="125.6953"/>
        <text fill="#000000" font-family="sans-serif" font-size="13" lengthAdjust="spacing" textLength="126" x="300"
              y="120.6294">send message $0\n
        </text>
        <polygon fill="#181818" points="640,150.8281,650,154.8281,640,158.8281,644,154.8281"
                 style="stroke:#181818;stroke-width:1.0;"/>
        <line style="stroke:#181818;stroke-width:1.0;" x1="448" x2="646" y1="154.8281" y2="154.8281"/>
        <text fill="#000000" font-family="sans-serif" font-size="13" lengthAdjust="spacing" textLength="124" x="455"
              y="149.7622">read message $0\n
        </text>
        <polygon fill="#181818" points="459,179.9609,449,183.9609,459,187.9609,455,183.9609"
                 style="stroke:#181818;stroke-width:1.0;"/>
        <line style="stroke:#181818;stroke-width:1.0;stroke-dasharray:2.0,2.0;" x1="453" x2="656" y1="183.9609"
              y2="183.9609"/>
        <text fill="#000000" font-family="sans-serif" font-size="13" lengthAdjust="spacing" textLength="180" x="465"
              y="178.895">send message $0,[status]\n
        </text>
        <polygon fill="#181818" points="304,209.0938,294,213.0938,304,217.0938,300,213.0938"
                 style="stroke:#181818;stroke-width:1.0;"/>
        <line style="stroke:#181818;stroke-width:1.0;stroke-dasharray:2.0,2.0;" x1="298" x2="442" y1="213.0938"
              y2="213.0938"/>
        <text fill="#000000" font-family="sans-serif" font-size="13" lengthAdjust="spacing" textLength="82" x="310"
              y="208.0278">$0,[status]\n
        </text>
        <polygon fill="#181818" points="99,238.2266,89,242.2266,99,246.2266,95,242.2266"
                 style="stroke:#181818;stroke-width:1.0;"/>
        <line style="stroke:#181818;stroke-width:1.0;stroke-dasharray:2.0,2.0;" x1="93" x2="287" y1="242.2266"
              y2="242.2266"/>
        <text fill="#000000" font-family="sans-serif" font-size="13" lengthAdjust="spacing" textLength="171" x="105"
              y="237.1606">Http response error or 200
        </text>
        <polygon fill="#181818" points="39,252.2266,29,256.2266,39,260.2266,35,256.2266"
                 style="stroke:#181818;stroke-width:1.0;"/>
        <line style="stroke:#181818;stroke-width:1.0;stroke-dasharray:2.0,2.0;" x1="33" x2="77" y1="256.2266"
              y2="256.2266"/><!--SRC=[TL7BYiCm3BpxAuRIumR27dF8gT3TsqBegUt1f68nT1CZgVd-zIiqQIW4IxP6CoF5MrRNEsy7nKc8ZLyyx8wdxnsi8CHreIEUY5Cjfvkoi_UVaNM6bEiQTg39zPGWEJKcUa3LHiK6dGQqiRswoIeb5oOSiPvL6tofUaZ40KzayMHoBFXYeO7GSCCVYTXVmhw-N8PLvspLFFF8a1qsOB9lk-SfSaHLjGkEZV37EHZNXrmZnuqsB4lznSZl6r_Cfz6hDcwiB8f9_3W8WPX7HlW-wnel56bpQSr1DFwFVm00]-->
    </g>
</svg>